<svg xmlns="http://www.w3.org/2000/svg" version="1.1" xmlns:xlink="http://www.w3.org/1999/xlink" xmlns:svgjs="http://svgjs.dev/svgjs" width="1500" height="1500" viewBox="0 0 1500 1500"><rect width="1500" height="1500" fill="#000000"></rect><g transform="matrix(0.33200531208499334,0,0,0.33200531208499334,501.6060803215269,250.40485829959516)"><svg viewBox="0 0 123 247" data-background-color="#ffffff" preserveAspectRatio="xMidYMid meet" height="3012" width="1500" xmlns="http://www.w3.org/2000/svg" xmlns:xlink="http://www.w3.org/1999/xlink"><g id="tight-bounds" transform="matrix(1,0,0,1,-0.1506761421319993,-0.09999999999999432)"><svg viewBox="0 0 123.30135228426396 247.2" height="247.2" width="123.30135228426396"><g><svg></svg></g><g><svg viewBox="0 0 123.30135228426396 247.2" height="247.2" width="123.30135228426396"><g transform="matrix(1,0,0,1,0,47.215199999999996)"><svg viewBox="0 0 123.30135228426396 152.7696" height="152.7696" width="123.30135228426396"><g><svg viewBox="0 0 123.30135228426396 152.7696" height="152.7696" width="123.30135228426396"><g><svg viewBox="0 0 123.30135228426396 152.7696" height="152.7696" width="123.30135228426396"><g><svg viewBox="0 0 123.30135228426396 152.7696" height="152.7696" width="123.30135228426396"><g id="textblocktransform"><svg viewBox="0 0 123.30135228426396 152.7696" height="152.7696" width="123.30135228426396" id="textblock"><g><svg viewBox="0 0 123.30135228426396 152.7696" height="152.7696" width="123.30135228426396"><g transform="matrix(1,0,0,1,0,0)"><svg width="123.30135228426396" viewBox="3.15 -29.55 23.85 29.55" height="152.7696" data-palette-color="#3864a6"><path d="M6.4 0L3.15 0 3.15-29.55 12.45-29.55Q14.95-29.55 16.5-28.38 18.05-27.2 18.05-24.65L18.05-24.65 18.05-19.85Q18.05-17.3 16.53-15.9 15-14.5 12.4-14.4L12.4-14.4 12.4-14.45Q14-14.35 14.8-13.33 15.6-12.3 16.2-10.15L16.2-10.15 19.25 0 15.75 0 13.05-9.95Q12.65-11.35 12.03-12.48 11.4-13.6 10-13.6L10-13.6 6.4-13.6 6.4 0ZM6.4-27.7L6.4-15.85 10.8-15.85Q13.1-15.85 14.03-16.93 14.95-18 14.95-20.1L14.95-20.1 14.95-24.1Q14.95-25.95 14.08-26.83 13.2-27.7 11.4-27.7L11.4-27.7 6.4-27.7ZM27 0L23.85 0 23.85-29.55 27-29.55 27 0Z" opacity="1" transform="matrix(1,0,0,1,0,0)" fill="#ffffff" class="wordmark-text-0" data-fill-palette-color="primary" id="text-0"></path></svg></g></svg></g></svg></g></svg></g><g></g></svg></g></svg></g></svg></g><path d="M0 41.215L0 1 123.301 1 123.301 41.215 109.524 41.215 109.524 14.777 13.777 14.777 13.777 41.215 0 41.215M0 205.985L0 246.2 123.301 246.2 123.301 205.985 109.524 205.985 109.524 232.423 13.777 232.423 13.777 205.985 0 205.985" fill="#ffffff" stroke="transparent" data-fill-palette-color="tertiary"></path></svg></g><defs></defs></svg><rect width="123.30135228426396" height="247.2" fill="none" stroke="none" visibility="hidden"></rect></g></svg></g></svg>